<?xml version="1.0" encoding="utf-8"?>
<!-- Generator: Adobe Illustrator 28.0.0, SVG Export Plug-In . SVG Version: 6.00 Build 0)  -->
<svg version="1.1" id="Layer_1" xmlns="http://www.w3.org/2000/svg" xmlns:xlink="http://www.w3.org/1999/xlink" x="0px" y="0px"
	 viewBox="0 0 1000 1000" style="enable-background:new 0 0 1000 1000;" xml:space="preserve">
<style type="text/css">
	.st0{fill:#2F2F2F;}
	.st1{fill:url(#SVGID_1_);}
	.st2{fill:#E7E3DC;}
	.st3{fill:none;stroke:#000000;stroke-width:3.3151;stroke-miterlimit:10;}
	
		.st4{fill:url(#SVGID_00000061461205348589949880000009658909907077919638_);stroke:url(#SVGID_00000159427710380206865980000002023995489269243820_);stroke-width:17.9539;stroke-miterlimit:10;}
	.st5{fill:url(#SVGID_00000142156712545132160290000016165289856685634454_);}
	
		.st6{fill:url(#SVGID_00000065770191021391139190000010184292220111876998_);stroke:url(#SVGID_00000084514675051243501870000001712318818989506224_);stroke-width:17.9539;stroke-miterlimit:10;}
	.st7{stroke:#000000;stroke-miterlimit:10;}
	.st8{fill:url(#SVGID_00000015353386313645761910000013911417523829915820_);}
	.st9{fill:url(#SVGID_00000107548188825678523210000012710474926591535747_);}
	.st10{fill:url(#SVGID_00000022540928626461024200000012773274371100720309_);}
	.st11{fill:url(#SVGID_00000090255963905063170650000004031594437626664362_);}
	.st12{fill:url(#SVGID_00000089551414914093929870000004508752381770465154_);}
</style>
<g>
	<linearGradient id="SVGID_1_" gradientUnits="userSpaceOnUse" x1="135.0563" y1="507.9644" x2="885.5049" y2="507.9644">
		<stop  offset="0" style="stop-color:#BF7802"/>
		<stop  offset="0.225" style="stop-color:#CB5C47"/>
		<stop  offset="0.495" style="stop-color:#E04F88"/>
		<stop  offset="0.765" style="stop-color:#8558C8"/>
		<stop  offset="1" style="stop-color:#5881CB"/>
	</linearGradient>
	<path class="st1" d="M884.2,835.85c-0.12,0.33-0.26,0.66-0.41,1c-5.53,12.56-20.8,12.66-26.01,12.66h-0.13l-300.22-0.07
		c-5.02,0-16.77,0-22.93-9.36c-2.77-4.2-3.67-8.94-2.62-13.71c2.17-9.77,12.08-17.02,21.49-22.82
		c11.12-6.85,18.99-19.15,20.55-32.11c1.56-12.99-2.6-26.58-6.63-39.72l-19.08-62.26c-47.2-153.99-94.4-307.97-141.61-461.95
		c-0.61-1.97-1.38-3.55-2.06-4.66c-0.06,0.09-0.11,0.16-0.16,0.22c-51.54,67.47-96.28,138.11-147.59,223.43
		c-36,59.85-66.75,114.32-78.5,174.82c-10.38,53.4-4.17,126.93,44.37,173.15c37.12,35.36,94.43,47.31,142.59,29.73
		c48.16-17.57,84.31-63.61,89.94-114.57c4.75-42.99-13.53-84.27-45.48-102.71c-13.1-7.56-28.18-11.5-44.15-15.68
		c-21.13-5.53-42.99-11.24-60.62-26.09c-23.95-20.17-33.48-54.02-23.16-82.3c5.18-14.18,15.52-26.49,29.13-34.65
		c13.88-8.33,29.66-11.41,44.43-8.66c15.41,2.87,29.62,12.48,38.97,26.38c9.04,13.43,12.37,28.85,9.38,43.42
		c-1.93,9.42-6.27,16.7-12.55,21.04c-9.43,6.52-22.76,4.83-29.1-3.69c-3.46-4.64-4.09-9.88-4.54-13.71
		c-0.17-1.38-0.33-2.69-0.57-3.69c-0.94-3.79-4.67-5.71-6.23-6.36c-4.18-1.74-9.04-1.57-12.37,0.44
		c-7.19,4.31-10.52,15.14-7.6,24.66c3.84,12.49,15.32,20.11,21.82,23.54c10.38,5.48,22.08,8.34,34.48,11.37l1.63,0.4
		c30.09,7.36,61.68,16.13,88.05,34.99c26.83,19.17,46.36,48.91,55.01,83.73c8.44,33.98,5.89,69.73-7.18,100.66
		c-12.8,30.27-35.02,56.75-64.26,76.59c-28.27,19.17-60.99,30.82-94.64,33.71c-5.79,0.49-11.6,0.74-17.42,0.74
		c-44.74,0-89.78-14.48-125.85-40.85c-40.74-29.77-70.54-75.08-81.77-124.29c-14.37-63.04-0.88-135.47,41.27-221.44
		c36.5-74.46,83.97-143.88,129.88-211.02c16.58-24.25,33.72-49.32,50.06-74.22c2.5-3.81,3.67-6.98,3.2-8.7
		c-0.43-1.59-2.82-4.42-11.75-8.85c-5.97-2.97-13.24-8.97-15.74-16.91c-1.55-4.91-1.1-9.82,1.3-14.2
		c5.86-10.71,19.04-10.72,23.98-10.7l268.23,0.14c0.38,0,0.99-0.02,1.75-0.05c0.76-0.02,1.67-0.06,2.64-0.1
		c32.71-1.38,54.15,0.36,59.97,13.29c2.14,4.75,2.74,12.44-6.56,22.09c-3.03,3.13-6.45,5.35-9.47,7.31c-2.52,1.64-4.9,3.18-6.4,4.87
		c-5.71,6.41-2.79,19.17,0.39,29.56L841.1,767.35c4.51,14.74,9.42,28.51,19.74,35.07c1.21,0.77,2.52,1.56,3.87,2.36
		C874.23,810.5,890.17,820.06,884.2,835.85z"/>
</g>
<path class="st0" d="M854.87,816.59c-0.07,0.17-0.14,0.35-0.22,0.53c-2.68,6.09-10.79,6.98-17.45,6.98
	c-100.07-0.02-200.15-0.04-300.22-0.06c-5.52,0-11.97-0.48-15-5.09c-5.83-8.85,6.91-17.66,15.93-23.22
	c13.62-8.39,23.08-23.19,24.99-39.07c1.77-14.74-2.63-29.44-6.98-43.63c-53.56-174.74-107.11-349.48-160.69-524.21
	c-1.98-6.44-6.71-14.46-13.12-12.4c-2.45,0.79-4.16,2.94-5.72,4.98c-54.43,71.25-101.97,147.47-148.18,224.3
	c-33.67,55.99-67.23,113.78-79.69,177.91c-12.46,64.13-0.17,136.78,47.14,181.84c39.58,37.7,101.05,50.51,152.4,31.78
	s90.12-68.13,96.13-122.46c4.76-43.03-12.69-90.34-50.18-111.98c-32.31-18.65-74.86-16.77-103.39-40.8
	c-20.26-17.06-29.43-46.9-20.35-71.79c9.08-24.88,36.85-42.07,62.89-37.22s46.1,32.61,40.78,58.55c-1.2,5.83-3.75,11.75-8.65,15.13
	c-4.9,3.39-12.52,3.23-16.08-1.55c-2.9-3.9-2.34-9.28-3.51-14c-3.23-13.08-21.16-18.73-32.71-11.8
	c-11.55,6.93-15.74,22.72-11.78,35.6c3.96,12.88,14.55,22.86,26.46,29.15c11.91,6.29,25.2,9.39,38.28,12.59
	c29.7,7.27,59.91,15.7,84.79,33.49c52.33,37.4,69.64,113.72,44.6,172.97c-25.05,59.24-86.88,99.04-150.96,104.53
	c-48.22,4.13-97.78-9.75-136.85-38.31c-39.08-28.56-67.35-71.55-78.11-118.74c-16.55-72.57,7.77-148.3,40.53-215.14
	c49.35-100.67,117.83-190.48,179.35-284.21c10.65-16.23,2.54-23.93-12.27-31.28c-6.96-3.45-14.05-11.22-10.32-18.04
	c2.81-5.13,9.79-5.76,15.64-5.76c59.29,0.03,118.58,0.06,177.88,0.09c30.12,0.02,60.23,0.03,90.35,0.05
	c8.67,0,74.99-5.77,50.97,19.13c-4.73,4.9-11.6,7.37-16.13,12.46c-8.99,10.1-5.56,25.74-1.6,38.67
	c55.91,182.55,111.83,365.1,167.74,547.65c4.67,15.24,10.27,31.76,23.73,40.31C844.39,800.31,858.56,806.85,854.87,816.59z"/>
</svg>
